# xmcd
#
# Track frame offsets:
#	150
#	19243
#	32873
#	51925
#	62898
#	79268
#	92508
#	104030
#	120718
#	136673
#
# Disc length: 2030 seconds
#
# Revision: 1
# Processed by: cddbd v1.5.2PL0 Copyright (c) Steve Scherf et al.
# Submitted via: audiograbber 1.83.01
#
DISCID=8707ec0a
DTITLE=Various Artist - JVC061
DYEAR=1900
DGENRE=Karaoke
TTITLE0=Alabama - Once Upon A Lifetime
TTITLE1=Mary Chapin Carpenter - Passionate Kisses
TTITLE2=Tanya Tucker - Two Sparrows In A Hurricane
TTITLE3=Alan Jackson - She's Got The Rhythm (And I Got The Blues)
TTITLE4=John Anderson - Seminole Wind
TTITLE5=Brooks and Dunn - Hard Workin' Man
TTITLE6=Collin Raye - I Want You Bad (And That Ain't Good)
TTITLE7=Clint Black - When My Ship Comes In
TTITLE8=George Strait - I Cross My Heart
TTITLE9=Pam Tillis - Let That Pony Run
EXTD=
EXTT0=
EXTT1=
EXTT2=
EXTT3=
EXTT4=
EXTT5=
EXTT6=
EXTT7=
EXTT8=
EXTT9=
PLAYORDER=
